<?xml version="1.0" standalone="no"?><!DOCTYPE svg PUBLIC "-//W3C//DTD SVG 1.1//EN" "http://www.w3.org/Graphics/SVG/1.1/DTD/svg11.dtd"><svg t="1575296111087" class="icon" viewBox="0 0 1024 1024" version="1.1" xmlns="http://www.w3.org/2000/svg" p-id="1046" xmlns:xlink="http://www.w3.org/1999/xlink" width="200" height="200"><defs><style type="text/css"></style></defs><path d="M800.31 287.91h-22.57c7.69-19.09 11.99-39.62 11.99-60.81 0-89.81-73.09-162.9-162.9-162.9-44.85 0-85.52 18.23-115 47.66-29.47-29.25-69.99-47.36-114.68-47.36-89.81 0-162.9 73.09-162.9 162.9 0 21.08 4.25 41.5 11.86 60.51h-22.42c-79.49 0-144.15 64.66-144.15 144.15v36.13c0 44.66 20.41 84.63 52.39 111.09v271.28c0 60.23 49.01 109.24 109.24 109.24h541.82c60.13 0 109.05-48.92 109.05-109.05V693.18c0-26.54-21.52-48.05-48.05-48.05s-48.05 21.52-48.05 48.05v157.57c0 7.02-5.94 12.95-12.95 12.95H560.05V612.35h240.26c79.49 0 144.15-64.66 144.15-144.15v-36.13c0-79.5-64.66-144.16-144.15-144.16zM626.83 160.3c36.84 0 66.8 29.96 66.8 66.8 0 20.13-8.96 38.99-24.61 51.78-3.27 2.67-5.93 5.77-8.3 9.03H560.05V227.1c0-36.84 29.96-66.8 66.78-66.8zM354.71 278.97c-15.49-12.74-24.35-31.53-24.35-51.57 0-36.84 29.96-66.8 66.8-66.8s66.8 29.96 66.8 66.8v60.51H362.89c-2.34-3.22-4.96-6.29-8.18-8.94zM175.64 432.06c0-26.49 21.56-48.05 48.05-48.05h240.26v132.23H223.69c-26.49 0-48.05-21.56-48.05-48.05v-36.13zM463.95 863.7H241.17c-7.13 0-13.14-6.01-13.14-13.14V612.35h235.92V863.7z m384.41-395.5c0 26.49-21.56 48.05-48.05 48.05H560.05V384.01h240.26c26.49 0 48.05 21.56 48.05 48.05v36.14z" fill="#231815" p-id="1047"></path></svg>