<?xml version="1.0" standalone="no"?><!DOCTYPE svg PUBLIC "-//W3C//DTD SVG 1.1//EN" "http://www.w3.org/Graphics/SVG/1.1/DTD/svg11.dtd"><svg t="1575296116077" class="icon" viewBox="0 0 1024 1024" version="1.1" xmlns="http://www.w3.org/2000/svg" p-id="1163" xmlns:xlink="http://www.w3.org/1999/xlink" width="200" height="200"><defs><style type="text/css"></style></defs><path d="M482.6 674.4c-12.4 0-24.4-4.6-33.6-13L323.6 546.5c-20.3-18.5-21.7-50-3.1-70.3s50-21.6 70.3-3.1l86.7 79.3 150.9-184.6c17.4-21.3 48.7-24.4 70-7 21.3 17.4 24.4 48.7 7 70L521.1 656.1c-8.7 10.6-21.3 17.1-34.9 18.1-1.2 0.1-2.4 0.2-3.6 0.2zM530 956.3l8.4-3.3c225.1-87 334.5-212 334.5-382.3v-359c0-13.5-5.5-26.4-15.2-35.8-9.7-9.4-22.4-14.1-36.3-13.9l-24.3 0.8c-6.2 0.2-12.3 0.3-18.3 0.3-147.1 0-211.3-62.2-212.8-63.7l-17.3-18.9a49.67 49.67 0 0 0-73.4 0l-16.5 18.1c-2.8 2.9-70.8 69.8-232.1 64.2l-24.2-0.8c-13.8-0.4-26.6 4.6-36.3 13.9S151 198.2 151 211.7v359c0 170.3 109.4 295.4 334.5 382.4l8.5 3.3c5.8 2.2 11.9 3.3 17.9 3.3 6.2 0 12.3-1.2 18.1-3.4z m-17.9-772.5c35.1 27.2 119.1 77.6 261.3 78.8v308.1c0 84.9-30 193.8-261.5 285.9-231.5-92-261.4-200.9-261.4-285.9V262.6c143-1.2 226.6-51.5 261.6-78.8z" fill="#231815" p-id="1164"></path></svg>