<?xml version="1.0" standalone="no"?><!DOCTYPE svg PUBLIC "-//W3C//DTD SVG 1.1//EN" "http://www.w3.org/Graphics/SVG/1.1/DTD/svg11.dtd"><svg t="1575296100525" class="icon" viewBox="0 0 1024 1024" version="1.1" xmlns="http://www.w3.org/2000/svg" p-id="802" xmlns:xlink="http://www.w3.org/1999/xlink" width="200" height="200"><defs><style type="text/css"></style></defs><path d="M255.39 384.48h173.36c24.75 0 44.82-20.07 44.82-44.82s-20.07-44.82-44.82-44.82H255.39c-24.75 0-44.82 20.07-44.82 44.82s20.06 44.82 44.82 44.82zM357.45 433.58H255.39c-24.75 0-44.82 20.07-44.82 44.82s20.07 44.82 44.82 44.82h102.07c24.75 0 44.82-20.07 44.82-44.82s-20.07-44.82-44.83-44.82z" fill="#231815" p-id="803"></path><path d="M854.52 145H169.48c-58.29 0-105.71 52.44-105.71 116.89V762.1c0 64.45 47.42 116.89 105.71 116.89h685.03c58.29 0 105.71-52.44 105.71-116.89V261.89c0-64.45-47.41-116.89-105.7-116.89z m-701.1 617.11V261.89c0-16.38 9.67-27.25 16.06-27.25h685.03c6.39 0 16.06 10.87 16.06 27.25v447.34c-4.79-4.97-9.6-9.93-14.81-14.45a233.174 233.174 0 0 0-26.94-20.15c-20.84-13.35-48.58-7.28-61.92 13.57-13.35 20.85-7.28 48.56 13.57 61.92 5.78 3.7 11.35 7.87 16.53 12.38 9.06 7.86 17.05 16.96 23.94 26.85H537.45c1.17-2.48 2.27-4.99 3.59-7.4 25.06-45.95 72.32-74.49 123.34-74.49 91.02 0 165.07-75.36 165.07-168.01S755.4 371.44 664.38 371.44 499.3 446.82 499.3 539.46c0 43.88 16.75 83.75 43.9 113.71-33.13 20.84-61.29 49.98-80.88 85.89a238.457 238.457 0 0 0-17.67 41.3c-0.95 2.98-1.57 6-1.88 9H169.48c-6.39 0-16.06-10.87-16.06-27.25z m435.52-222.65c0-43.21 33.84-78.36 75.43-78.36s75.43 35.15 75.43 78.36-33.84 78.36-75.43 78.36-75.43-35.14-75.43-78.36z" fill="#231815" p-id="804"></path></svg>